<svg preserveAspectRatio="none" width="100%" height="100%" overflow="visible" style="display: block;" viewBox="0 0 9.33333 7.99423" fill="none" xmlns="http://www.w3.org/2000/svg">
<path id="icon" d="M9.33333 3.99386C9.33009 3.64312 9.18877 3.30779 8.94 3.06053L6.08 0.193862C5.95509 0.0696946 5.78612 0 5.61 0C5.43388 0 5.26491 0.0696946 5.14 0.193862C5.07751 0.255837 5.02792 0.329571 4.99407 0.41081C4.96023 0.49205 4.9428 0.579187 4.9428 0.667194C4.9428 0.755202 4.96023 0.842339 4.99407 0.923578C5.02792 1.00482 5.07751 1.07855 5.14 1.14053L7.33333 3.32719H0.666667C0.489856 3.32719 0.320287 3.39743 0.195262 3.52245C0.070238 3.64748 0 3.81705 0 3.99386C0 4.17067 0.070238 4.34024 0.195262 4.46526C0.320287 4.59029 0.489856 4.66052 0.666667 4.66052H7.33333L5.14 6.85385C5.01446 6.97851 4.94359 7.14792 4.94296 7.32483C4.94234 7.50174 5.01201 7.67165 5.13667 7.79719C5.26132 7.92272 5.43073 7.9936 5.60764 7.99422C5.78455 7.99485 5.95446 7.92517 6.08 7.80052L8.94 4.93386C9.19039 4.68496 9.33184 4.34691 9.33333 3.99386V3.99386Z" fill="var(--fill-0, #080B12)" style="fill:#080B12;fill:color(display-p3 0.0314 0.0431 0.0706);fill-opacity:1;"/>
</svg>
