<svg preserveAspectRatio="none" width="100%" height="100%" overflow="visible" style="display: block;" viewBox="0 0 80 80" fill="none" xmlns="http://www.w3.org/2000/svg">
<g id="Graph">
<path id="graph-bg" d="M80 40C80 62.0914 62.0914 80 40 80C17.9086 80 0 62.0914 0 40C0 17.9086 17.9086 0 40 0C62.0914 0 80 17.9086 80 40ZM8 40C8 57.6731 22.3269 72 40 72C57.6731 72 72 57.6731 72 40C72 22.3269 57.6731 8 40 8C22.3269 8 8 22.3269 8 40Z" fill="var(--fill-0, #111827)" fill-opacity="0.04" style="fill:#111827;fill:color(display-p3 0.0667 0.0941 0.1529);fill-opacity:0.04;"/>
<path id="graph-bg_2" d="M40 0C46.569 7.83341e-08 53.0368 1.61781 58.8322 4.71052C64.6276 7.80322 69.5721 12.2756 73.229 17.7326C76.8858 23.1896 79.1424 29.4632 79.7994 35.9993C80.4564 42.5353 79.4936 49.1325 76.9961 55.2082L66.6372 50.9499C68.4354 46.5754 69.1286 41.8254 68.6556 37.1195C68.1825 32.4135 66.5578 27.8965 63.9249 23.9675C61.2919 20.0384 57.7319 16.8183 53.5592 14.5916C49.3865 12.3648 44.7297 11.2 40 11.2L40 0Z" fill="var(--fill-0, #D7FE03)" style="fill:#D7FE03;fill:color(display-p3 0.8431 0.9961 0.0118);fill-opacity:1;"/>
</g>
</svg>
