<svg preserveAspectRatio="none" width="100%" height="100%" overflow="visible" style="display: block;" viewBox="0 0 80 80" fill="none" xmlns="http://www.w3.org/2000/svg">
<g id="Graph">
<path id="graph-bg" d="M80 40C80 62.0914 62.0914 80 40 80C17.9086 80 0 62.0914 0 40C0 17.9086 17.9086 0 40 0C62.0914 0 80 17.9086 80 40ZM8 40C8 57.6731 22.3269 72 40 72C57.6731 72 72 57.6731 72 40C72 22.3269 57.6731 8 40 8C22.3269 8 8 22.3269 8 40Z" fill="var(--fill-0, #111827)" fill-opacity="0.04" style="fill:#111827;fill:color(display-p3 0.0667 0.0941 0.1529);fill-opacity:0.04;"/>
<path id="graph-bg_2" d="M40 0C42.5877 3.08575e-08 45.1692 0.251097 47.7084 0.749761L45.55 11.7398C43.7218 11.3808 41.8631 11.2 40 11.2L40 0Z" fill="var(--fill-0, #D7FE03)" style="fill:#D7FE03;fill:color(display-p3 0.8431 0.9961 0.0118);fill-opacity:1;"/>
</g>
</svg>
