<svg preserveAspectRatio="none" width="100%" height="100%" overflow="visible" style="display: block;" viewBox="0 0 4.78211 9.33387" fill="none" xmlns="http://www.w3.org/2000/svg">
<path id="icon" d="M1.52491 5.14053C1.46242 5.07855 1.41282 5.00482 1.37898 4.92358C1.34513 4.84234 1.32771 4.7552 1.32771 4.6672C1.32771 4.57919 1.34513 4.49205 1.37898 4.41081C1.41282 4.32957 1.46242 4.25584 1.52491 4.19386L4.58491 1.14053C4.64739 1.07855 4.69699 1.00482 4.73084 0.92358C4.76468 0.84234 4.78211 0.755203 4.78211 0.667195C4.78211 0.579187 4.76468 0.49205 4.73084 0.41081C4.69699 0.329571 4.64739 0.255837 4.58491 0.193862C4.46 0.0696944 4.29103 0 4.11491 0C3.93878 0 3.76982 0.0696944 3.64491 0.193862L0.584906 3.25386C0.210372 3.62886 0 4.13719 0 4.6672C0 5.1972 0.210372 5.70553 0.584906 6.08053L3.64491 9.14053C3.76908 9.26369 3.93668 9.33313 4.11157 9.33386C4.19931 9.33437 4.28629 9.31755 4.36751 9.28438C4.44874 9.2512 4.52261 9.20232 4.58491 9.14053C4.64739 9.07855 4.69699 9.00482 4.73084 8.92358C4.76468 8.84234 4.78211 8.7552 4.78211 8.6672C4.78211 8.57919 4.76468 8.49205 4.73084 8.41081C4.69699 8.32957 4.64739 8.25584 4.58491 8.19386L1.52491 5.14053Z" fill="var(--fill-0, #080B12)" style="fill:#080B12;fill:color(display-p3 0.0314 0.0431 0.0706);fill-opacity:1;"/>
</svg>
