<svg preserveAspectRatio="none" width="100%" height="100%" overflow="visible" style="display: block;" viewBox="0 0 20.0002 19.98" fill="none" xmlns="http://www.w3.org/2000/svg">
<g id="icon">
<path d="M18.5777 10.5834L17.6727 11.4884L14.6852 8.50005C14.2089 8.04574 13.5759 7.79228 12.9177 7.79228C12.2594 7.79228 11.6265 8.04574 11.1502 8.50005L11.006 8.64422C10.8474 8.79591 10.6363 8.88057 10.4168 8.88057C10.1973 8.88057 9.9863 8.79591 9.82767 8.64422L5.60016 4.41172C5.52329 4.33213 5.43134 4.26864 5.32967 4.22497C5.228 4.1813 5.11865 4.15831 5.008 4.15735C4.89735 4.15638 4.78762 4.17747 4.6852 4.21937C4.58279 4.26127 4.48974 4.32315 4.4115 4.40139C4.33326 4.47964 4.27138 4.57268 4.22948 4.67509C4.18758 4.77751 4.16649 4.88724 4.16745 4.99789C4.16842 5.10854 4.1914 5.21789 4.23508 5.31956C4.27875 5.42123 4.34224 5.51318 4.42183 5.59005L8.6485 9.81755C9.12471 10.2721 9.7577 10.5257 10.416 10.5257C11.0743 10.5257 11.7073 10.2721 12.1835 9.81755L12.3277 9.67339C12.4863 9.5217 12.6973 9.43704 12.9168 9.43704C13.1363 9.43704 13.3474 9.5217 13.506 9.67339L16.4943 12.6667L15.5893 13.5717C15.4728 13.6883 15.3935 13.8367 15.3613 13.9984C15.3292 14.16 15.3457 14.3275 15.4088 14.4798C15.4718 14.632 15.5786 14.7622 15.7156 14.8537C15.8526 14.9453 16.0137 14.9942 16.1785 14.9942H18.7502C19.0817 14.9942 19.3996 14.8625 19.634 14.6281C19.8685 14.3937 20.0002 14.0757 20.0002 13.7442V11.1667C19.999 11.0024 19.9493 10.8421 19.8573 10.706C19.7652 10.5699 19.635 10.464 19.483 10.4017C19.331 10.3394 19.164 10.3233 19.0029 10.3557C18.8418 10.388 18.6939 10.4672 18.5777 10.5834Z" fill="var(--fill-0, #D85E6D)" style="fill:#D85E6D;fill:color(display-p3 0.8471 0.3686 0.4275);fill-opacity:1;"/>
<path d="M19.1667 18.3133H4.16667C3.50363 18.3133 2.86774 18.0499 2.3989 17.5811C1.93006 17.1123 1.66667 16.4764 1.66667 15.8133V0.833333C1.66667 0.61232 1.57887 0.400358 1.42259 0.244078C1.26631 0.0877974 1.05435 0 0.833333 0C0.61232 0 0.400358 0.0877974 0.244078 0.244078C0.0877974 0.400358 0 0.61232 0 0.833333V15.8133C0.00132321 16.918 0.440735 17.977 1.22185 18.7582C2.00296 19.5393 3.062 19.9787 4.16667 19.98H19.1667C19.3877 19.98 19.5996 19.8922 19.7559 19.7359C19.9122 19.5796 20 19.3677 20 19.1467C20 18.9257 19.9122 18.7137 19.7559 18.5574C19.5996 18.4011 19.3877 18.3133 19.1667 18.3133Z" fill="var(--fill-0, #D85E6D)" style="fill:#D85E6D;fill:color(display-p3 0.8471 0.3686 0.4275);fill-opacity:1;"/>
</g>
</svg>
