<svg preserveAspectRatio="none" width="100%" height="100%" overflow="visible" style="display: block;" viewBox="0 0 16 12" fill="none" xmlns="http://www.w3.org/2000/svg">
<g id="icon">
<path d="M3.66672 9.33344C4.219 9.33344 4.66672 8.88572 4.66672 8.33344C4.66672 7.78115 4.219 7.33344 3.66672 7.33344C3.11444 7.33344 2.66672 7.78115 2.66672 8.33344C2.66672 8.88572 3.11444 9.33344 3.66672 9.33344Z" fill="var(--fill-0, #080B12)" style="fill:#080B12;fill:color(display-p3 0.0314 0.0431 0.0706);fill-opacity:1;"/>
<path d="M12.6667 0H3.33333C2.4496 0.00105857 1.60237 0.352588 0.97748 0.97748C0.352588 1.60237 0.00105857 2.4496 0 3.33333V8.66667C0.00105857 9.5504 0.352588 10.3976 0.97748 11.0225C1.60237 11.6474 2.4496 11.9989 3.33333 12H12.6667C13.5504 11.9989 14.3976 11.6474 15.0225 11.0225C15.6474 10.3976 15.9989 9.5504 16 8.66667V3.33333C15.9989 2.4496 15.6474 1.60237 15.0225 0.97748C14.3976 0.352588 13.5504 0.00105857 12.6667 0ZM3.33333 1.33333H12.6667C13.1971 1.33333 13.7058 1.54405 14.0809 1.91912C14.456 2.29419 14.6667 2.8029 14.6667 3.33333H1.33333C1.33333 2.8029 1.54405 2.29419 1.91912 1.91912C2.29419 1.54405 2.8029 1.33333 3.33333 1.33333ZM12.6667 10.6667H3.33333C2.8029 10.6667 2.29419 10.456 1.91912 10.0809C1.54405 9.70581 1.33333 9.1971 1.33333 8.66667V4.66667H14.6667V8.66667C14.6667 9.1971 14.456 9.70581 14.0809 10.0809C13.7058 10.456 13.1971 10.6667 12.6667 10.6667Z" fill="var(--fill-0, #080B12)" style="fill:#080B12;fill:color(display-p3 0.0314 0.0431 0.0706);fill-opacity:1;"/>
</g>
</svg>
