<svg preserveAspectRatio="none" width="100%" height="100%" overflow="visible" style="display: block;" viewBox="0 0 20 20" fill="none" xmlns="http://www.w3.org/2000/svg">
<g id="icon">
<path d="M19.1667 18.3333H4.16667C3.50363 18.3333 2.86774 18.0699 2.3989 17.6011C1.93006 17.1323 1.66667 16.4964 1.66667 15.8333V0.833333C1.66667 0.61232 1.57887 0.400358 1.42259 0.244078C1.26631 0.0877974 1.05435 0 0.833333 0C0.61232 0 0.400358 0.0877974 0.244078 0.244078C0.0877974 0.400358 0 0.61232 0 0.833333V15.8333C0.00132321 16.938 0.440735 17.997 1.22185 18.7782C2.00296 19.5593 3.062 19.9987 4.16667 20H19.1667C19.3877 20 19.5996 19.9122 19.7559 19.7559C19.9122 19.5996 20 19.3877 20 19.1667C20 18.9457 19.9122 18.7337 19.7559 18.5774C19.5996 18.4211 19.3877 18.3333 19.1667 18.3333Z" fill="var(--fill-0, #080B12)" style="fill:#080B12;fill:color(display-p3 0.0314 0.0431 0.0706);fill-opacity:1;"/>
<path d="M5.00013 16.6666C5.22114 16.6666 5.4331 16.5788 5.58938 16.4225C5.74566 16.2662 5.83346 16.0543 5.83346 15.8333V9.99994C5.83346 9.77893 5.74566 9.56696 5.58938 9.41068C5.4331 9.2544 5.22114 9.16661 5.00013 9.16661C4.77911 9.16661 4.56715 9.2544 4.41087 9.41068C4.25459 9.56696 4.16679 9.77893 4.16679 9.99994V15.8333C4.16679 16.0543 4.25459 16.2662 4.41087 16.4225C4.56715 16.5788 4.77911 16.6666 5.00013 16.6666Z" fill="var(--fill-0, #080B12)" style="fill:#080B12;fill:color(display-p3 0.0314 0.0431 0.0706);fill-opacity:1;"/>
<path d="M8.3332 8.33333V15.8333C8.3332 16.0543 8.421 16.2663 8.57728 16.4226C8.73356 16.5789 8.94552 16.6667 9.16654 16.6667C9.38755 16.6667 9.59952 16.5789 9.7558 16.4226C9.91208 16.2663 9.99988 16.0543 9.99988 15.8333V8.33333C9.99988 8.11232 9.91208 7.90036 9.7558 7.74408C9.59952 7.5878 9.38755 7.5 9.16654 7.5C8.94552 7.5 8.73356 7.5878 8.57728 7.74408C8.421 7.90036 8.3332 8.11232 8.3332 8.33333Z" fill="var(--fill-0, #080B12)" style="fill:#080B12;fill:color(display-p3 0.0314 0.0431 0.0706);fill-opacity:1;"/>
<path d="M12.5 10.8333V15.8333C12.5 16.0543 12.5878 16.2663 12.7441 16.4226C12.9004 16.5789 13.1123 16.6667 13.3333 16.6667C13.5544 16.6667 13.7663 16.5789 13.9226 16.4226C14.0789 16.2663 14.1667 16.0543 14.1667 15.8333V10.8333C14.1667 10.6123 14.0789 10.4004 13.9226 10.2441C13.7663 10.0878 13.5544 10 13.3333 10C13.1123 10 12.9004 10.0878 12.7441 10.2441C12.5878 10.4004 12.5 10.6123 12.5 10.8333Z" fill="var(--fill-0, #080B12)" style="fill:#080B12;fill:color(display-p3 0.0314 0.0431 0.0706);fill-opacity:1;"/>
<path d="M16.6668 7.49993V15.8333C16.6668 16.0543 16.7546 16.2662 16.9109 16.4225C17.0672 16.5788 17.2791 16.6666 17.5002 16.6666C17.7212 16.6666 17.9331 16.5788 18.0894 16.4225C18.2457 16.2662 18.3335 16.0543 18.3335 15.8333V7.49993C18.3335 7.27891 18.2457 7.06695 18.0894 6.91067C17.9331 6.75439 17.7212 6.66659 17.5002 6.66659C17.2791 6.66659 17.0672 6.75439 16.9109 6.91067C16.7546 7.06695 16.6668 7.27891 16.6668 7.49993Z" fill="var(--fill-0, #080B12)" style="fill:#080B12;fill:color(display-p3 0.0314 0.0431 0.0706);fill-opacity:1;"/>
<path d="M4.99986 7.49995C5.22086 7.4999 5.43278 7.41207 5.58903 7.25578L8.57736 4.26745C8.73619 4.11613 8.94716 4.03173 9.16653 4.03173C9.3859 4.03173 9.59686 4.11613 9.75569 4.26745L11.5657 6.07745C12.0345 6.54612 12.6703 6.80941 13.3332 6.80941C13.9961 6.80941 14.6319 6.54612 15.1007 6.07745L19.7557 1.42245C19.9075 1.26528 19.9915 1.05478 19.9896 0.836279C19.9877 0.617781 19.9 0.408771 19.7455 0.254264C19.591 0.0997573 19.382 0.0121166 19.1635 0.0102179C18.945 0.0083192 18.7345 0.0923145 18.5774 0.244113L13.9224 4.89828C13.7661 5.05451 13.5542 5.14227 13.3332 5.14227C13.1122 5.14227 12.9003 5.05451 12.744 4.89828L10.934 3.08911C10.4652 2.62044 9.82944 2.35715 9.16653 2.35715C8.50362 2.35715 7.86785 2.62044 7.39903 3.08911L4.41069 6.07745C4.29419 6.19399 4.21485 6.34246 4.18271 6.50409C4.15057 6.66571 4.16707 6.83324 4.23013 6.98549C4.29319 7.13774 4.39997 7.26788 4.53698 7.35945C4.67399 7.45102 4.83507 7.49991 4.99986 7.49995Z" fill="var(--fill-0, #080B12)" style="fill:#080B12;fill:color(display-p3 0.0314 0.0431 0.0706);fill-opacity:1;"/>
</g>
</svg>
