<svg preserveAspectRatio="none" width="100%" height="100%" overflow="visible" style="display: block;" viewBox="0 0 139.017 30.2224" fill="none" xmlns="http://www.w3.org/2000/svg">
<g id="Mycash+">
<path id="Vector" d="M128.983 22.3101V6.00114H133.033V22.3101H128.983ZM122.999 16.2173V12.094H139.017V16.2173H122.999Z" fill="var(--fill-0, #070A10)" style="fill:#070A10;fill:color(display-p3 0.0275 0.0392 0.0627);fill-opacity:1;"/>
<path id="Vector_2" d="M107.045 13.3605V23.5881H102.226V0H106.909V9.01831H107.113C107.505 7.97404 108.138 7.15629 109.013 6.56505C109.888 5.96613 110.985 5.66668 112.305 5.66668C113.512 5.66668 114.564 5.93542 115.461 6.47291C116.366 7.00272 117.067 7.76672 117.565 8.76492C118.07 9.75543 118.319 10.9418 118.312 12.3239V23.5881H113.493V13.1992C113.5 12.1089 113.229 11.2604 112.678 10.6538C112.135 10.0472 111.374 9.74392 110.393 9.74392C109.737 9.74392 109.156 9.88597 108.651 10.1701C108.153 10.4542 107.761 10.8688 107.475 11.414C107.196 11.9515 107.052 12.6003 107.045 13.3605Z" fill="var(--fill-0, #070A10)" style="fill:#070A10;fill:color(display-p3 0.0275 0.0392 0.0627);fill-opacity:1;"/>
<path id="Vector_3" d="M98.7945 10.9422L94.3827 11.2186C94.3073 10.8347 94.1451 10.4891 93.8963 10.182C93.6474 9.86717 93.3193 9.61763 92.9121 9.43334C92.5124 9.24138 92.0335 9.1454 91.4754 9.1454C90.7288 9.1454 90.0991 9.30665 89.5863 9.62914C89.0735 9.94396 88.817 10.3663 88.817 10.8961C88.817 11.3184 88.983 11.6754 89.3148 11.9672C89.6466 12.259 90.216 12.4932 91.0229 12.6698L94.1678 13.3148C95.8571 13.668 97.1165 14.2362 97.9461 15.0194C98.7756 15.8026 99.1904 16.8315 99.1904 18.1061C99.1904 19.2656 98.8548 20.283 98.1836 21.1583C97.52 22.0336 96.6075 22.717 95.4461 23.2084C94.2922 23.6922 92.9611 23.934 91.4528 23.934C89.1526 23.934 87.32 23.4465 85.955 22.4713C84.5975 21.4885 83.8019 20.1524 83.5681 18.4632L88.308 18.2098C88.4513 18.9239 88.7982 19.469 89.3487 19.8453C89.8993 20.2138 90.6044 20.3981 91.4641 20.3981C92.3088 20.3981 92.9875 20.233 93.5003 19.9029C94.0207 19.565 94.2847 19.1312 94.2922 18.6014C94.2847 18.156 94.0999 17.7913 93.7379 17.5072C93.3759 17.2154 92.8178 16.9927 92.0637 16.8392L89.0546 16.2287C87.3578 15.8832 86.0945 15.2843 85.265 14.432C84.4429 13.5797 84.0319 12.4932 84.0319 11.1725C84.0319 10.0361 84.3336 9.0571 84.9369 8.23551C85.5478 7.41392 86.4037 6.78045 87.5048 6.3351C88.6134 5.88975 89.9106 5.66708 91.3962 5.66708C93.5908 5.66708 95.3178 6.1393 96.5773 7.08375C97.8443 8.02819 98.5833 9.31433 98.7945 10.9422Z" fill="var(--fill-0, #070A10)" style="fill:#070A10;fill:color(display-p3 0.0275 0.0392 0.0627);fill-opacity:1;"/>
<path id="Vector_4" d="M70.814 23.9225C69.7054 23.9225 68.7175 23.7267 67.8502 23.3351C66.9829 22.9358 66.2966 22.3484 65.7914 21.5729C65.2936 20.7897 65.0447 19.8146 65.0447 18.6474C65.0447 17.6646 65.222 16.8392 65.5764 16.1712C65.9309 15.5031 66.4135 14.9656 67.0244 14.5587C67.6353 14.1517 68.3291 13.8446 69.1059 13.6373C69.8902 13.43 70.7122 13.2841 71.5719 13.1996C72.5825 13.0921 73.397 12.9923 74.0154 12.9001C74.6338 12.8003 75.0825 12.6544 75.3616 12.4625C75.6406 12.2705 75.7801 11.9864 75.7801 11.6102V11.5411C75.7801 10.8116 75.5539 10.2473 75.1014 9.84798C74.6564 9.4487 74.0229 9.24906 73.2009 9.24906C72.3336 9.24906 71.6436 9.44486 71.1308 9.83646C70.6179 10.2204 70.2786 10.7041 70.1127 11.2877L65.6556 10.9191C65.8818 9.84414 66.3268 8.91505 66.9905 8.13185C67.6541 7.34097 68.5101 6.73438 69.5583 6.31206C70.6142 5.88207 71.8359 5.66708 73.2235 5.66708C74.1889 5.66708 75.1127 5.78225 75.9951 6.01261C76.885 6.24296 77.6731 6.60001 78.3593 7.08375C79.0532 7.56749 79.5999 8.18944 79.9996 8.9496C80.3993 9.70209 80.5992 10.6043 80.5992 11.6562V23.5885H76.029V21.1353H75.8932C75.6142 21.6881 75.2409 22.1757 74.7733 22.598C74.3058 23.0126 73.7439 23.339 73.0878 23.577C72.4317 23.8073 71.6737 23.9225 70.814 23.9225ZM72.1941 20.5363C72.903 20.5363 73.529 20.3943 74.072 20.1102C74.615 19.8184 75.0411 19.4268 75.3503 18.9354C75.6595 18.444 75.8141 17.8873 75.8141 17.2653V15.388C75.6632 15.4878 75.4558 15.5799 75.1919 15.6644C74.9355 15.7412 74.6451 15.8141 74.3208 15.8832C73.9965 15.9446 73.6723 16.0022 73.348 16.056C73.0237 16.1021 72.7296 16.1443 72.4656 16.1827C71.9 16.2671 71.406 16.4015 70.9837 16.5858C70.5614 16.7701 70.2333 17.0196 69.9995 17.3344C69.7657 17.6416 69.6489 18.0255 69.6489 18.4862C69.6489 19.1542 69.8864 19.6648 70.3615 20.018C70.8442 20.3636 71.455 20.5363 72.1941 20.5363Z" fill="var(--fill-0, #070A10)" style="fill:#070A10;fill:color(display-p3 0.0275 0.0392 0.0627);fill-opacity:1;"/>
<path id="Vector_5" d="M55.0132 23.934C53.2334 23.934 51.7025 23.5501 50.4204 22.7823C49.1459 22.0068 48.1655 20.9318 47.4792 19.5573C46.8005 18.1829 46.4611 16.6011 46.4611 14.8121C46.4611 13 46.8042 11.4105 47.4905 10.0438C48.1843 8.66934 49.1685 7.5982 50.443 6.83036C51.7175 6.05484 53.2334 5.66708 54.9906 5.66708C56.5064 5.66708 57.8337 5.94734 58.9725 6.50786C60.1113 7.06839 61.0125 7.85543 61.6761 8.86898C62.3398 9.88253 62.7056 11.0727 62.7734 12.4394H58.2259C58.0977 11.5564 57.7583 10.8462 57.2078 10.3087C56.6648 9.76352 55.9521 9.49093 55.0698 9.49093C54.3231 9.49093 53.6708 9.69825 53.1127 10.1129C52.5622 10.5198 52.1323 11.1149 51.8231 11.8981C51.5139 12.6813 51.3593 13.6296 51.3593 14.743C51.3593 15.8717 51.5101 16.8315 51.8118 17.6224C52.121 18.4133 52.5547 19.016 53.1127 19.4306C53.6708 19.8453 54.3231 20.0526 55.0698 20.0526C55.6203 20.0526 56.1143 19.9374 56.5517 19.7071C56.9966 19.4767 57.3624 19.1427 57.649 18.705C57.9431 18.2597 58.1354 17.726 58.2259 17.1041H62.7734C62.698 18.4555 62.336 19.6456 61.6875 20.6746C61.0464 21.6958 60.1603 22.4943 59.0291 23.0702C57.8978 23.6461 56.5592 23.934 55.0132 23.934Z" fill="var(--fill-0, #070A10)" style="fill:#070A10;fill:color(display-p3 0.0275 0.0392 0.0627);fill-opacity:1;"/>
<path id="Vector_6" d="M32.0324 30.2224C31.4215 30.2224 30.8484 30.1725 30.3129 30.0727C29.785 29.9806 29.3476 29.8616 29.0007 29.7157V26.0531C29.5663 26.2297 31.1614 26.3256 31.6138 26.341C32.0739 26.3564 32.4698 26.2489 32.8016 26.0185C33.141 25.7882 33.4163 25.3966 33.6274 24.8437L33.9103 24.0951L27.6772 5.89721H32.7451L36.3424 18.8891H36.5234L40.1546 5.89721H45.2565L38.503 25.5002C38.1788 26.4523 37.7376 27.2816 37.1795 27.988C36.629 28.7021 35.9314 29.2511 35.0867 29.635C34.2421 30.0266 33.224 30.2224 32.0324 30.2224Z" fill="var(--fill-0, #070A10)" style="fill:#070A10;fill:color(display-p3 0.0275 0.0392 0.0627);fill-opacity:1;"/>
<path id="Vector_7" d="M0 2.68538e-08H6.04078L12.4209 15.8483H12.6924L19.0726 2.68538e-08H25.1133V23.5881H20.3622V8.23511H20.1699L14.1743 23.4729H10.939L4.94348 8.17752H4.75117V23.5881H0V2.68538e-08Z" fill="var(--fill-0, #070A10)" style="fill:#070A10;fill:color(display-p3 0.0275 0.0392 0.0627);fill-opacity:1;"/>
</g>
</svg>
