<svg preserveAspectRatio="none" width="100%" height="100%" overflow="visible" style="display: block;" viewBox="0 0 11.6667 20" fill="none" xmlns="http://www.w3.org/2000/svg">
<path id="icon" d="M7.44333 3.33333C8.1212 3.334 8.77111 3.60357 9.25044 4.08289C9.72976 4.56222 9.99934 5.21213 10 5.89C10 6.11101 10.0878 6.32298 10.2441 6.47926C10.4004 6.63554 10.6123 6.72333 10.8333 6.72333C11.0543 6.72333 11.2663 6.63554 11.4226 6.47926C11.5789 6.32298 11.6667 6.11101 11.6667 5.89V5.83333C11.6667 5.8175 11.6667 5.80333 11.6667 5.7875C11.6389 4.68561 11.1818 3.63815 10.3929 2.86838C9.60395 2.09861 8.54558 1.6674 7.44333 1.66667H6.66667V0.833333C6.66667 0.61232 6.57887 0.400358 6.42259 0.244078C6.26631 0.0877974 6.05435 0 5.83333 0C5.61232 0 5.40036 0.0877974 5.24408 0.244078C5.0878 0.400358 5 0.61232 5 0.833333V1.66667H4.22333C3.2211 1.66774 2.25191 2.02519 1.489 2.67515C0.726082 3.3251 0.219175 4.22519 0.0588775 5.21452C-0.10142 6.20385 0.0953423 7.21795 0.613993 8.07555C1.13264 8.93315 1.93938 9.57835 2.89 9.89583L5 10.6V16.6667H4.22333C3.54547 16.666 2.89555 16.3964 2.41623 15.9171C1.9369 15.4378 1.66733 14.7879 1.66667 14.11C1.66667 13.889 1.57887 13.677 1.42259 13.5207C1.26631 13.3645 1.05435 13.2767 0.833333 13.2767C0.61232 13.2767 0.400358 13.3645 0.244078 13.5207C0.0877975 13.677 0 13.889 0 14.11V14.1667C0 14.1825 0 14.1967 0 14.2125C0.0278111 15.3144 0.484885 16.3618 1.2738 17.1316C2.06272 17.9014 3.12109 18.3326 4.22333 18.3333H5V19.1667C5 19.3877 5.0878 19.5996 5.24408 19.7559C5.40036 19.9122 5.61232 20 5.83333 20C6.05435 20 6.26631 19.9122 6.42259 19.7559C6.57887 19.5996 6.66667 19.3877 6.66667 19.1667V18.3333H7.44333C8.44557 18.3323 9.41476 17.9748 10.1777 17.3249C10.9406 16.6749 11.4475 15.7748 11.6078 14.7855C11.7681 13.7961 11.5713 12.7821 11.0527 11.9245C10.534 11.0669 9.72729 10.4216 8.77667 10.1042L6.66667 9.4V3.33333H7.44333ZM8.25167 11.6842C8.82785 11.8759 9.31697 12.2665 9.63144 12.786C9.94591 13.3055 10.0652 13.92 9.96795 14.5194C9.8707 15.1189 9.56327 15.6641 9.10069 16.0575C8.63811 16.451 8.0506 16.6669 7.44333 16.6667H6.66667V11.1558L8.25167 11.6842ZM5 8.84417L3.41667 8.31583C2.84062 8.12411 2.35159 7.73364 2.03711 7.21432C1.72263 6.695 1.60322 6.08071 1.70025 5.4814C1.79728 4.88208 2.10442 4.33685 2.56669 3.94329C3.02897 3.54972 3.61621 3.3335 4.22333 3.33333H5V8.84417Z" fill="var(--fill-0, #080B12)" style="fill:#080B12;fill:color(display-p3 0.0314 0.0431 0.0706);fill-opacity:1;"/>
</svg>
