<svg preserveAspectRatio="none" width="100%" height="100%" overflow="visible" style="display: block;" viewBox="0 0 16.0131 16.0131" fill="none" xmlns="http://www.w3.org/2000/svg">
<path id="icon" d="M15.826 14.8833L11.8467 10.904C12.9311 9.57773 13.4643 7.8854 13.3359 6.17705C13.2075 4.46869 12.4275 2.87503 11.1571 1.72569C9.88664 0.576346 8.22307 -0.0407328 6.51043 0.0020884C4.7978 0.0449096 3.16714 0.744354 1.95575 1.95575C0.744354 3.16714 0.0449096 4.7978 0.0020884 6.51043C-0.0407328 8.22307 0.576346 9.88664 1.72569 11.1571C2.87503 12.4275 4.46869 13.2075 6.17705 13.3359C7.8854 13.4643 9.57773 12.9311 10.904 11.8467L14.8833 15.826C15.0091 15.9474 15.1775 16.0146 15.3523 16.0131C15.5271 16.0116 15.6943 15.9415 15.8179 15.8179C15.9415 15.6943 16.0116 15.5271 16.0131 15.3523C16.0146 15.1775 15.9474 15.0091 15.826 14.8833ZM6.688 12.0213C5.63317 12.0213 4.60203 11.7085 3.72496 11.1225C2.8479 10.5365 2.16431 9.70352 1.76065 8.72898C1.35698 7.75444 1.25136 6.68209 1.45715 5.64752C1.66294 4.61296 2.17089 3.66265 2.91677 2.91677C3.66265 2.17089 4.61296 1.66294 5.64752 1.45715C6.68209 1.25136 7.75444 1.35698 8.72898 1.76065C9.70352 2.16431 10.5365 2.8479 11.1225 3.72496C11.7085 4.60203 12.0213 5.63317 12.0213 6.688C12.0197 8.102 11.4573 9.45764 10.4575 10.4575C9.45764 11.4573 8.102 12.0197 6.688 12.0213Z" fill="var(--fill-0, #080B12)" style="fill:#080B12;fill:color(display-p3 0.0314 0.0431 0.0706);fill-opacity:1;"/>
</svg>
