<svg preserveAspectRatio="none" width="100%" height="100%" overflow="visible" style="display: block;" viewBox="0 0 8 8" fill="none" xmlns="http://www.w3.org/2000/svg">
<path id="icon" d="M7.33333 3.33333H4.66667V0.666667C4.66667 0.489856 4.59643 0.320287 4.4714 0.195262C4.34638 0.070238 4.17681 0 4 0C3.82319 0 3.65362 0.070238 3.5286 0.195262C3.40357 0.320287 3.33333 0.489856 3.33333 0.666667V3.33333H0.666667C0.489856 3.33333 0.320287 3.40357 0.195262 3.5286C0.070238 3.65362 0 3.82319 0 4C0 4.17681 0.070238 4.34638 0.195262 4.4714C0.320287 4.59643 0.489856 4.66667 0.666667 4.66667H3.33333V7.33333C3.33333 7.51014 3.40357 7.67971 3.5286 7.80474C3.65362 7.92976 3.82319 8 4 8C4.17681 8 4.34638 7.92976 4.4714 7.80474C4.59643 7.67971 4.66667 7.51014 4.66667 7.33333V4.66667H7.33333C7.51014 4.66667 7.67971 4.59643 7.80474 4.4714C7.92976 4.34638 8 4.17681 8 4C8 3.82319 7.92976 3.65362 7.80474 3.5286C7.67971 3.40357 7.51014 3.33333 7.33333 3.33333Z" fill="var(--fill-0, #080B12)" style="fill:#080B12;fill:color(display-p3 0.0314 0.0431 0.0706);fill-opacity:1;"/>
</svg>
