<svg preserveAspectRatio="none" width="100%" height="100%" overflow="visible" style="display: block;" viewBox="0 0 20.9461 39.321" fill="none" xmlns="http://www.w3.org/2000/svg">
<path id="icon" d="M20.4445 29.1499C20.2922 28.9963 20.111 28.8744 19.9113 28.7912C19.7116 28.708 19.4974 28.6652 19.2811 28.6652C19.0648 28.6652 18.8507 28.708 18.651 28.7912C18.4513 28.8744 18.2701 28.9963 18.1178 29.1499L12.1698 35.0978V1.63855C12.1698 1.20398 11.9972 0.78721 11.6899 0.479921C11.3826 0.172633 10.9658 0 10.5312 0V0C10.0967 0 9.67991 0.172633 9.37262 0.479921C9.06533 0.78721 8.89269 1.20398 8.89269 1.63855V35.0814L2.96113 29.1499C2.82069 28.9578 2.64011 28.7987 2.43195 28.6835C2.2238 28.5683 1.99305 28.4998 1.75575 28.4828C1.51846 28.4658 1.2803 28.5006 1.05784 28.585C0.835373 28.6693 0.633938 28.801 0.467531 28.9711C0.301125 29.1411 0.173738 29.3453 0.094225 29.5695C0.0147121 29.7938 -0.0150202 30.0326 0.00709498 30.2695C0.0292102 30.5064 0.102642 30.7356 0.222287 30.9412C0.341932 31.1468 0.504921 31.3239 0.699925 31.4602L7.12306 37.8834C8.04475 38.8039 9.29414 39.321 10.5968 39.321C11.8994 39.321 13.1488 38.8039 14.0705 37.8834L20.4937 31.4602C20.7924 31.1468 20.9549 30.7278 20.9457 30.2949C20.9365 29.862 20.7563 29.4503 20.4445 29.1499V29.1499Z" fill="var(--fill-0, #070800)" style="fill:#070800;fill:color(display-p3 0.0275 0.0314 0.0000);fill-opacity:1;"/>
</svg>
