<svg preserveAspectRatio="none" width="100%" height="100%" overflow="visible" style="display: block;" viewBox="0 0 20 19.98" fill="none" xmlns="http://www.w3.org/2000/svg">
<g id="icon">
<path d="M18.7499 3.31336H16.1782C16.0134 3.3134 15.8523 3.36229 15.7153 3.45386C15.5783 3.54543 15.4715 3.67557 15.4085 3.82782C15.3454 3.98007 15.3289 4.1476 15.361 4.30922C15.3932 4.47085 15.4725 4.61932 15.589 4.73586L16.494 5.64086L13.5057 8.62836C13.3469 8.78011 13.1357 8.86479 12.9161 8.86479C12.6965 8.86479 12.4853 8.78011 12.3265 8.62836L12.1849 8.48586C11.7087 8.03092 11.0755 7.77705 10.4169 7.77705C9.75839 7.77705 9.12519 8.03092 8.64903 8.48586L4.39903 12.7359C4.24244 12.8929 4.15465 13.1057 4.15496 13.3275C4.15528 13.5492 4.24367 13.7618 4.4007 13.9184C4.55773 14.075 4.77053 14.1627 4.99229 14.1624C5.21406 14.1621 5.42661 14.0737 5.5832 13.9167L9.8332 9.6667C9.99188 9.51476 10.2031 9.42995 10.4228 9.42995C10.6425 9.42995 10.8537 9.51476 11.0124 9.6667L11.154 9.8092C11.6304 10.2638 12.2635 10.5174 12.9219 10.5174C13.5804 10.5174 14.2135 10.2638 14.6899 9.8092L17.6782 6.82086L18.5832 7.72586C18.7001 7.84049 18.8482 7.91812 19.009 7.94907C19.1698 7.98002 19.3362 7.96291 19.4873 7.89988C19.6384 7.83685 19.7677 7.73069 19.8588 7.59467C19.95 7.45864 19.999 7.29877 19.9999 7.13503V4.56336C19.9999 4.23184 19.8682 3.9139 19.6337 3.67948C19.3993 3.44506 19.0814 3.31336 18.7499 3.31336Z" fill="var(--fill-0, #38BB82)" style="fill:#38BB82;fill:color(display-p3 0.2196 0.7333 0.5098);fill-opacity:1;"/>
<path d="M19.1667 18.3133H4.16667C3.50363 18.3133 2.86774 18.0499 2.3989 17.5811C1.93006 17.1123 1.66667 16.4764 1.66667 15.8133V0.833333C1.66667 0.61232 1.57887 0.400358 1.42259 0.244078C1.26631 0.0877974 1.05435 0 0.833333 0C0.61232 0 0.400358 0.0877974 0.244078 0.244078C0.0877974 0.400358 0 0.61232 0 0.833333V15.8133C0.00132321 16.918 0.440735 17.977 1.22185 18.7582C2.00296 19.5393 3.062 19.9787 4.16667 19.98H19.1667C19.3877 19.98 19.5996 19.8922 19.7559 19.7359C19.9122 19.5796 20 19.3677 20 19.1467C20 18.9257 19.9122 18.7137 19.7559 18.5574C19.5996 18.4011 19.3877 18.3133 19.1667 18.3133Z" fill="var(--fill-0, #38BB82)" style="fill:#38BB82;fill:color(display-p3 0.2196 0.7333 0.5098);fill-opacity:1;"/>
</g>
</svg>
