<svg preserveAspectRatio="none" width="100%" height="100%" overflow="visible" style="display: block;" viewBox="0 0 16 16.0003" fill="none" xmlns="http://www.w3.org/2000/svg">
<g id="icon">
<path d="M0.666667 3.16684H2.49067C2.63376 3.69333 2.94612 4.1581 3.37955 4.48946C3.81299 4.82082 4.34341 5.00034 4.889 5.00034C5.43459 5.00034 5.96501 4.82082 6.39845 4.48946C6.83188 4.1581 7.14424 3.69333 7.28733 3.16684H15.3333C15.5101 3.16684 15.6797 3.0966 15.8047 2.97158C15.9298 2.84655 16 2.67698 16 2.50017C16 2.32336 15.9298 2.15379 15.8047 2.02877C15.6797 1.90374 15.5101 1.83351 15.3333 1.83351H7.28733C7.14424 1.30702 6.83188 0.842243 6.39845 0.510885C5.96501 0.179527 5.43459 0 4.889 0C4.34341 0 3.81299 0.179527 3.37955 0.510885C2.94612 0.842243 2.63376 1.30702 2.49067 1.83351H0.666667C0.489856 1.83351 0.320286 1.90374 0.195262 2.02877C0.0702379 2.15379 0 2.32336 0 2.50017C0 2.67698 0.0702379 2.84655 0.195262 2.97158C0.320286 3.0966 0.489856 3.16684 0.666667 3.16684ZM4.88867 1.33351C5.11941 1.33351 5.34497 1.40193 5.53683 1.53012C5.72869 1.65832 5.87822 1.84053 5.96653 2.05371C6.05483 2.26689 6.07793 2.50147 6.03292 2.72778C5.9879 2.95409 5.87679 3.16197 5.71362 3.32513C5.55046 3.48829 5.34258 3.59941 5.11627 3.64442C4.88996 3.68944 4.65538 3.66633 4.4422 3.57803C4.22902 3.48973 4.04681 3.3402 3.91862 3.14834C3.79042 2.95648 3.722 2.73092 3.722 2.50017C3.72235 2.19086 3.84538 1.89432 4.0641 1.6756C4.28281 1.45689 4.57936 1.33386 4.88867 1.33351Z" fill="var(--fill-0, #080B12)" style="fill:#080B12;fill:color(display-p3 0.0314 0.0431 0.0706);fill-opacity:1;"/>
<path d="M15.3333 7.3327H13.5093C13.3665 6.80609 13.0542 6.34115 12.6208 6.00966C12.1874 5.67816 11.657 5.49855 11.1113 5.49855C10.5657 5.49855 10.0352 5.67816 9.60182 6.00966C9.16842 6.34115 8.85619 6.80609 8.71333 7.3327H0.666667C0.489856 7.3327 0.320286 7.40294 0.195262 7.52796C0.0702379 7.65299 0 7.82256 0 7.99937C0 8.17618 0.0702379 8.34575 0.195262 8.47077C0.320286 8.59579 0.489856 8.66603 0.666667 8.66603H8.71333C8.85619 9.19264 9.16842 9.65758 9.60182 9.98908C10.0352 10.3206 10.5657 10.5002 11.1113 10.5002C11.657 10.5002 12.1874 10.3206 12.6208 9.98908C13.0542 9.65758 13.3665 9.19264 13.5093 8.66603H15.3333C15.5101 8.66603 15.6797 8.59579 15.8047 8.47077C15.9298 8.34575 16 8.17618 16 7.99937C16 7.82256 15.9298 7.65299 15.8047 7.52796C15.6797 7.40294 15.5101 7.3327 15.3333 7.3327ZM11.1113 9.16603C10.8806 9.16603 10.655 9.09761 10.4632 8.96941C10.2713 8.84122 10.1218 8.65901 10.0335 8.44583C9.94517 8.23265 9.92207 7.99807 9.96708 7.77176C10.0121 7.54545 10.1232 7.33757 10.2864 7.17441C10.4495 7.01125 10.6574 6.90014 10.8837 6.85512C11.11 6.8101 11.3446 6.83321 11.5578 6.92151C11.771 7.00981 11.9532 7.15935 12.0814 7.3512C12.2096 7.54306 12.278 7.76862 12.278 7.99937C12.2776 8.30868 12.1546 8.60522 11.9359 8.82393C11.7172 9.04265 11.4206 9.16568 11.1113 9.16603Z" fill="var(--fill-0, #080B12)" style="fill:#080B12;fill:color(display-p3 0.0314 0.0431 0.0706);fill-opacity:1;"/>
<path d="M15.3333 12.8335H7.28733C7.14424 12.307 6.83188 11.8422 6.39845 11.5109C5.96501 11.1795 5.43459 11 4.889 11C4.34341 11 3.81299 11.1795 3.37955 11.5109C2.94612 11.8422 2.63376 12.307 2.49067 12.8335H0.666667C0.489856 12.8335 0.320286 12.9037 0.195262 13.0288C0.0702379 13.1538 0 13.3234 0 13.5002C0 13.677 0.0702379 13.8465 0.195262 13.9716C0.320286 14.0966 0.489856 14.1668 0.666667 14.1668H2.49067C2.63376 14.6933 2.94612 15.1581 3.37955 15.4894C3.81299 15.8208 4.34341 16.0003 4.889 16.0003C5.43459 16.0003 5.96501 15.8208 6.39845 15.4894C6.83188 15.1581 7.14424 14.6933 7.28733 14.1668H15.3333C15.5101 14.1668 15.6797 14.0966 15.8047 13.9716C15.9298 13.8465 16 13.677 16 13.5002C16 13.3234 15.9298 13.1538 15.8047 13.0288C15.6797 12.9037 15.5101 12.8335 15.3333 12.8335ZM4.88867 14.6668C4.65792 14.6668 4.43236 14.5984 4.2405 14.4702C4.04864 14.342 3.89911 14.1598 3.81081 13.9466C3.72251 13.7334 3.6994 13.4989 3.74442 13.2726C3.78943 13.0463 3.90055 12.8384 4.06371 12.6752C4.22687 12.5121 4.43475 12.4009 4.66106 12.3559C4.88737 12.3109 5.12195 12.334 5.33513 12.4223C5.54831 12.5106 5.73052 12.6601 5.85871 12.852C5.98691 13.0439 6.05533 13.2694 6.05533 13.5002C6.0548 13.8094 5.93172 14.1059 5.71304 14.3245C5.49436 14.5432 5.19792 14.6663 4.88867 14.6668Z" fill="var(--fill-0, #080B12)" style="fill:#080B12;fill:color(display-p3 0.0314 0.0431 0.0706);fill-opacity:1;"/>
</g>
</svg>
