<svg preserveAspectRatio="none" width="100%" height="100%" overflow="visible" style="display: block;" viewBox="0 0 52.9801 30.8243" fill="none" xmlns="http://www.w3.org/2000/svg">
<g id="Vector">
<path d="M28.1966 1.24531C28.8968 0.503627 29.8478 0.0869519 30.8381 0.0869519C35.2935 0.0869519 39.4922 0.0869543 43.627 0.0869627C51.9433 0.0869805 56.1078 10.7369 50.2273 16.9654L37.4181 30.5327C36.8301 31.1556 35.8246 30.7144 35.8246 29.8336V17.884L37.3049 16.316C38.481 15.0703 37.648 12.9403 35.9847 12.9403H17.1551L28.1966 1.24531Z" fill="var(--fill-0, #C4E703)" style="fill:#C4E703;fill:color(display-p3 0.7686 0.9059 0.0118);fill-opacity:1;"/>
<path d="M24.7835 29.579C24.0833 30.3207 23.1323 30.7373 22.142 30.7373C17.6867 30.7373 13.488 30.7373 9.35312 30.7373C1.03678 30.7373 -3.12764 20.0875 2.75288 13.8588L15.5621 0.291572C16.1501 -0.331288 17.1556 0.109847 17.1556 0.990702L17.1551 12.9403L15.6753 14.5082C14.4992 15.754 15.3321 17.8839 16.9954 17.8839L35.8246 17.884L24.7835 29.579Z" fill="var(--fill-0, #C4E703)" style="fill:#C4E703;fill:color(display-p3 0.7686 0.9059 0.0118);fill-opacity:1;"/>
</g>
</svg>
