<svg preserveAspectRatio="none" width="100%" height="100%" overflow="visible" style="display: block;" viewBox="0 0 16 15.9904" fill="none" xmlns="http://www.w3.org/2000/svg">
<path id="icon" d="M15.414 6.03175L10.3573 0.974417C9.7315 0.35041 8.88378 0 8.00001 0C7.11623 0 6.26851 0.35041 5.64268 0.974417L0.586008 6.03175C0.399625 6.21694 0.251855 6.43728 0.151263 6.68001C0.0506715 6.92273 -0.000740267 7.18301 8.05299e-06 7.44575V13.9904C8.05299e-06 14.5209 0.210722 15.0296 0.585795 15.4046C0.960867 15.7797 1.46958 15.9904 2.00001 15.9904H14C14.5304 15.9904 15.0391 15.7797 15.4142 15.4046C15.7893 15.0296 16 14.5209 16 13.9904V7.44575C16.0008 7.18301 15.9493 6.92273 15.8488 6.68001C15.7482 6.43728 15.6004 6.21694 15.414 6.03175V6.03175ZM10 14.6571H6.00001V12.0344C6.00001 11.504 6.21072 10.9953 6.58579 10.6202C6.96087 10.2451 7.46958 10.0344 8.00001 10.0344C8.53044 10.0344 9.03915 10.2451 9.41422 10.6202C9.7893 10.9953 10 11.504 10 12.0344V14.6571ZM14.6667 13.9904C14.6667 14.1672 14.5964 14.3368 14.4714 14.4618C14.3464 14.5868 14.1768 14.6571 14 14.6571H11.3333V12.0344C11.3333 11.1504 10.9822 10.3025 10.357 9.6774C9.73191 9.05227 8.88406 8.70108 8.00001 8.70108C7.11595 8.70108 6.26811 9.05227 5.64299 9.6774C5.01786 10.3025 4.66667 11.1504 4.66667 12.0344V14.6571H2.00001C1.8232 14.6571 1.65363 14.5868 1.5286 14.4618C1.40358 14.3368 1.33334 14.1672 1.33334 13.9904V7.44575C1.33396 7.26907 1.40413 7.09974 1.52867 6.97442L6.58534 1.91908C6.96114 1.54504 7.46979 1.33505 8.00001 1.33505C8.53023 1.33505 9.03888 1.54504 9.41468 1.91908L14.4713 6.97642C14.5954 7.10125 14.6655 7.26976 14.6667 7.44575V13.9904Z" fill="var(--fill-0, white)" style="fill:white;fill-opacity:1;"/>
</svg>
