<svg preserveAspectRatio="none" width="100%" height="100%" overflow="visible" style="display: block;" viewBox="0 0 80 80" fill="none" xmlns="http://www.w3.org/2000/svg">
<g id="Graph">
<path id="graph-bg" d="M80 40C80 62.0914 62.0914 80 40 80C17.9086 80 0 62.0914 0 40C0 17.9086 17.9086 0 40 0C62.0914 0 80 17.9086 80 40ZM8 40C8 57.6731 22.3269 72 40 72C57.6731 72 72 57.6731 72 40C72 22.3269 57.6731 8 40 8C22.3269 8 8 22.3269 8 40Z" fill="var(--fill-0, #111827)" fill-opacity="0.04" style="fill:#111827;fill:color(display-p3 0.0667 0.0941 0.1529);fill-opacity:0.04;"/>
<path id="graph-bg_2" d="M40 0C46.764 8.06594e-08 53.4175 1.71524 59.3384 4.98534C65.2593 8.25544 70.2543 12.9736 73.8564 18.6987C77.4584 24.4238 79.5498 30.9688 79.9351 37.7217C80.3203 44.4747 78.9868 51.2151 76.0593 57.3127L65.9627 52.4651C68.0705 48.0749 69.0306 43.2218 68.7532 38.3596C68.4759 33.4975 66.97 28.7851 64.3766 24.663C61.7831 20.541 58.1867 17.1439 53.9236 14.7894C49.6606 12.435 44.87 11.2 40 11.2L40 0Z" fill="var(--fill-0, #D7FE03)" style="fill:#D7FE03;fill:color(display-p3 0.8431 0.9961 0.0118);fill-opacity:1;"/>
</g>
</svg>
