<svg width="58" height="34" viewBox="0 0 58 34" fill="none" xmlns="http://www.w3.org/2000/svg">
<path d="M30.8682 1.37361C31.6348 0.555514 32.6759 0.0959102 33.76 0.0959102C38.6376 0.0959102 43.2341 0.0959128 47.7607 0.0959221C56.865 0.0959417 61.424 11.843 54.9863 18.7133L40.9635 33.6784C40.3197 34.3654 39.219 33.8788 39.219 32.9072V19.7265L40.8395 17.997C42.127 16.623 41.2152 14.2735 39.3943 14.2735H18.7806L30.8682 1.37361Z" fill="#C4E703" style="fill:#C4E703;fill:color(display-p3 0.7686 0.9059 0.0118);fill-opacity:1;"/>
<path d="M27.1317 32.6264C26.3652 33.4445 25.3241 33.9041 24.24 33.9041C19.3625 33.9041 14.7659 33.9041 10.2393 33.9041C1.13501 33.904 -3.42399 22.157 3.01371 15.2866L17.0366 0.321612C17.6803 -0.365419 18.7811 0.121164 18.7811 1.09277L18.7806 14.2735L17.1605 16.0029C15.873 17.377 16.7849 19.7264 18.6057 19.7264L39.219 19.7265L27.1317 32.6264Z" fill="#C4E703" style="fill:#C4E703;fill:color(display-p3 0.7686 0.9059 0.0118);fill-opacity:1;"/>
</svg>
