<svg width="203" height="34" viewBox="0 0 203 34" fill="none" xmlns="http://www.w3.org/2000/svg">
<path d="M28.1966 1.24531C28.8968 0.503627 29.8478 0.0869519 30.8381 0.0869519C35.2935 0.0869519 39.4922 0.0869543 43.627 0.0869627C51.9433 0.0869805 56.1078 10.7369 50.2273 16.9654L37.4181 30.5327C36.8301 31.1556 35.8246 30.7144 35.8246 29.8336V17.884L37.3049 16.316C38.481 15.0703 37.648 12.9403 35.9847 12.9403H17.1551L28.1966 1.24531Z" fill="#C4E703" style="fill:#C4E703;fill:color(display-p3 0.7686 0.9059 0.0118);fill-opacity:1;"/>
<path d="M24.7835 29.579C24.0833 30.3207 23.1323 30.7373 22.142 30.7373C17.6867 30.7373 13.488 30.7373 9.35312 30.7373C1.03678 30.7373 -3.12764 20.0875 2.75288 13.8588L15.5621 0.291572C16.1501 -0.331288 17.1556 0.109847 17.1556 0.990703L17.1551 12.9403L15.6753 14.5082C14.4992 15.754 15.3321 17.8839 16.9954 17.8839L35.8246 17.884L24.7835 29.579Z" fill="#C4E703" style="fill:#C4E703;fill:color(display-p3 0.7686 0.9059 0.0118);fill-opacity:1;"/>
<path d="M192.965 26.0873V9.77832H197.014V26.0873H192.965ZM186.98 19.9945V15.8711H202.999V19.9945H186.98Z" fill="#070A10" style="fill:#070A10;fill:color(display-p3 0.0275 0.0392 0.0627);fill-opacity:1;"/>
<path d="M171.028 17.1378V27.3655H166.209V3.77734H170.892V12.7956H171.096C171.488 11.7514 172.122 10.9336 172.996 10.3424C173.871 9.74348 174.968 9.44402 176.288 9.44402C177.495 9.44402 178.547 9.71276 179.444 10.2503C180.349 10.7801 181.051 11.5441 181.548 12.5423C182.054 13.5328 182.303 14.7191 182.295 16.1012V27.3655H177.476V16.9765C177.484 15.8862 177.212 15.0377 176.662 14.4312C176.119 13.8246 175.357 13.5213 174.376 13.5213C173.72 13.5213 173.14 13.6633 172.634 13.9474C172.137 14.2315 171.744 14.6461 171.458 15.1913C171.179 15.7288 171.036 16.3776 171.028 17.1378Z" fill="#070A10" style="fill:#070A10;fill:color(display-p3 0.0275 0.0392 0.0627);fill-opacity:1;"/>
<path d="M162.777 14.7194L158.365 14.9958C158.29 14.6119 158.128 14.2664 157.879 13.9592C157.63 13.6444 157.302 13.3949 156.895 13.2106C156.495 13.0186 156.016 12.9227 155.458 12.9227C154.711 12.9227 154.082 13.0839 153.569 13.4064C153.056 13.7212 152.8 14.1435 152.8 14.6733C152.8 15.0957 152.966 15.4527 153.297 15.7445C153.629 16.0363 154.199 16.2705 155.006 16.4471L158.15 17.092C159.84 17.4452 161.099 18.0135 161.929 18.7967C162.758 19.5799 163.173 20.6088 163.173 21.8834C163.173 23.0428 162.837 24.0602 162.166 24.9355C161.503 25.8109 160.59 26.4943 159.429 26.9857C158.275 27.4694 156.944 27.7113 155.435 27.7113C153.135 27.7113 151.303 27.2237 149.938 26.2486C148.58 25.2657 147.785 23.9297 147.551 22.2404L152.291 21.987C152.434 22.7011 152.781 23.2463 153.331 23.6225C153.882 23.9911 154.587 24.1754 155.447 24.1754C156.291 24.1754 156.97 24.0103 157.483 23.6801C158.003 23.3423 158.267 22.9084 158.275 22.3786C158.267 21.9333 158.083 21.5686 157.721 21.2845C157.359 20.9927 156.8 20.77 156.046 20.6164L153.037 20.006C151.34 19.6605 150.077 19.0616 149.248 18.2093C148.426 17.3569 148.015 16.2705 148.015 14.9498C148.015 13.8134 148.316 12.8344 148.92 12.0128C149.53 11.1912 150.386 10.5577 151.487 10.1124C152.596 9.66701 153.893 9.44434 155.379 9.44434C157.573 9.44434 159.301 9.91656 160.56 10.861C161.827 11.8054 162.566 13.0916 162.777 14.7194Z" fill="#070A10" style="fill:#070A10;fill:color(display-p3 0.0275 0.0392 0.0627);fill-opacity:1;"/>
<path d="M134.797 27.6998C133.688 27.6998 132.7 27.504 131.833 27.1124C130.966 26.7131 130.279 26.1257 129.774 25.3502C129.276 24.567 129.027 23.5918 129.027 22.4247C129.027 21.4419 129.205 20.6164 129.559 19.9484C129.913 19.2804 130.396 18.7429 131.007 18.3359C131.618 17.929 132.312 17.6219 133.088 17.4145C133.873 17.2072 134.695 17.0613 135.555 16.9769C136.565 16.8694 137.38 16.7695 137.998 16.6774C138.616 16.5776 139.065 16.4317 139.344 16.2397C139.623 16.0478 139.763 15.7637 139.763 15.3874V15.3183C139.763 14.5889 139.536 14.0245 139.084 13.6252C138.639 13.226 138.006 13.0263 137.184 13.0263C136.316 13.0263 135.626 13.2221 135.113 13.6137C134.601 13.9976 134.261 14.4814 134.095 15.0649L129.638 14.6964C129.864 13.6214 130.309 12.6923 130.973 11.9091C131.637 11.1182 132.493 10.5116 133.541 10.0893C134.597 9.65933 135.818 9.44434 137.206 9.44434C138.171 9.44434 139.095 9.55951 139.978 9.78986C140.868 10.0202 141.656 10.3773 142.342 10.861C143.036 11.3447 143.583 11.9667 143.982 12.7269C144.382 13.4793 144.582 14.3816 144.582 15.4335V27.3658H140.012V24.9125H139.876C139.597 25.4654 139.224 25.9529 138.756 26.3753C138.288 26.7899 137.727 27.1162 137.07 27.3542C136.414 27.5846 135.656 27.6998 134.797 27.6998ZM136.177 24.3136C136.886 24.3136 137.512 24.1715 138.055 23.8874C138.598 23.5957 139.024 23.2041 139.333 22.7126C139.642 22.2212 139.797 21.6645 139.797 21.0426V19.1652C139.646 19.265 139.438 19.3572 139.174 19.4416C138.918 19.5184 138.628 19.5914 138.303 19.6605C137.979 19.7219 137.655 19.7795 137.331 19.8332C137.006 19.8793 136.712 19.9215 136.448 19.9599C135.883 20.0444 135.389 20.1788 134.966 20.363C134.544 20.5473 134.216 20.7969 133.982 21.1117C133.748 21.4188 133.631 21.8028 133.631 22.2635C133.631 22.9315 133.869 23.4421 134.344 23.7953C134.827 24.1408 135.438 24.3136 136.177 24.3136Z" fill="#070A10" style="fill:#070A10;fill:color(display-p3 0.0275 0.0392 0.0627);fill-opacity:1;"/>
<path d="M118.995 27.7113C117.216 27.7113 115.685 27.3274 114.403 26.5595C113.128 25.784 112.148 24.709 111.461 23.3346C110.783 21.9602 110.443 20.3784 110.443 18.5893C110.443 16.7772 110.787 15.1878 111.473 13.821C112.167 12.4466 113.151 11.3755 114.425 10.6076C115.7 9.8321 117.216 9.44434 118.973 9.44434C120.489 9.44434 121.816 9.7246 122.955 10.2851C124.094 10.8456 124.995 11.6327 125.658 12.6462C126.322 13.6598 126.688 14.8499 126.756 16.2167H122.208C122.08 15.3337 121.741 14.6234 121.19 14.0859C120.647 13.5408 119.934 13.2682 119.052 13.2682C118.305 13.2682 117.653 13.4755 117.095 13.8901C116.544 14.2971 116.115 14.8922 115.805 15.6754C115.496 16.4586 115.342 17.4069 115.342 18.5202C115.342 19.649 115.492 20.6088 115.794 21.3996C116.103 22.1905 116.537 22.7933 117.095 23.2079C117.653 23.6225 118.305 23.8299 119.052 23.8299C119.603 23.8299 120.097 23.7147 120.534 23.4843C120.979 23.254 121.345 22.92 121.631 22.4823C121.925 22.0369 122.118 21.5033 122.208 20.8813H126.756C126.68 22.2327 126.318 23.4229 125.67 24.4518C125.029 25.473 124.143 26.2716 123.011 26.8475C121.88 27.4234 120.541 27.7113 118.995 27.7113Z" fill="#070A10" style="fill:#070A10;fill:color(display-p3 0.0275 0.0392 0.0627);fill-opacity:1;"/>
<path d="M96.0154 33.9996C95.4045 33.9996 94.8314 33.9496 94.2959 33.8498C93.768 33.7577 93.3306 33.6387 92.9837 33.4928V29.8302C93.5493 30.0068 95.1443 30.1028 95.5968 30.1181C96.0569 30.1335 96.4528 30.026 96.7846 29.7956C97.124 29.5653 97.3993 29.1737 97.6104 28.6208L97.8932 27.8722L91.6602 9.67432H96.7281L100.325 22.6662H100.506L104.138 9.67432H109.239L102.486 29.2773C102.162 30.2294 101.721 31.0587 101.162 31.7651C100.612 32.4792 99.9144 33.0282 99.0697 33.4122C98.2251 33.8038 97.207 33.9996 96.0154 33.9996Z" fill="#070A10" style="fill:#070A10;fill:color(display-p3 0.0275 0.0392 0.0627);fill-opacity:1;"/>
<path d="M63.9824 3.77734H70.0232L76.4033 19.6256H76.6748L83.055 3.77734H89.0958V27.3655H84.3446V12.0124H84.1523L78.1568 27.2503H74.9214L68.9259 11.9549H68.7336V27.3655H63.9824V3.77734Z" fill="#070A10" style="fill:#070A10;fill:color(display-p3 0.0275 0.0392 0.0627);fill-opacity:1;"/>
</svg>
